<?xml version="1.0" encoding="utf-8"?>
<!-- Generator: Adobe Illustrator 16.0.0, SVG Export Plug-In . SVG Version: 6.00 Build 0)  -->
<!DOCTYPE svg PUBLIC "-//W3C//DTD SVG 1.1//EN" "http://www.w3.org/Graphics/SVG/1.1/DTD/svg11.dtd">
<svg version="1.1" id="Layer_1" xmlns="http://www.w3.org/2000/svg" xmlns:xlink="http://www.w3.org/1999/xlink" x="0px" y="0px"
	 width="17px" height="17px" viewBox="0 0 17 17" enable-background="new 0 0 17 17" xml:space="preserve">
<g>
	<defs>
		<rect id="SVGID_1_" width="17" height="17"/>
	</defs>
	<clipPath id="SVGID_2_">
		<use xlink:href="#SVGID_1_"  overflow="visible"/>
	</clipPath>
	<path clip-path="url(#SVGID_2_)" d="M16.228,0h-6.183C9.619,0,9.272,0.346,9.272,0.773c0,0.427,0.347,0.772,0.772,0.772h4.317
		L6.408,9.499c-0.302,0.302-0.302,0.791,0,1.093c0.151,0.151,0.349,0.227,0.547,0.227c0.197,0,0.395-0.075,0.546-0.227l7.954-7.954
		v4.317c0,0.426,0.345,0.772,0.772,0.772C16.654,7.727,17,7.381,17,6.955V0.773C17,0.346,16.654,0,16.228,0"/>
	<path clip-path="url(#SVGID_2_)" d="M13.136,7.727c-0.427,0-0.771,0.346-0.771,0.773v6.955H1.545V4.636H8.5
		c0.427,0,0.773-0.346,0.773-0.772c0-0.427-0.346-0.773-0.773-0.773H0.773C0.346,3.091,0,3.437,0,3.864v12.363
		C0,16.654,0.346,17,0.773,17h12.362c0.428,0,0.773-0.346,0.773-0.772V8.5C13.909,8.073,13.563,7.727,13.136,7.727"/>
</g>
</svg>
